<svg width="30" height="30" viewBox="0 0 30 30" fill="none" xmlns="http://www.w3.org/2000/svg">
<path d="M24.1054 22.7696C24.2814 22.9473 24.3802 23.1874 24.3802 23.4375C24.3802 23.6877 24.2814 23.9277 24.1054 24.1055C23.9262 24.2788 23.6867 24.3756 23.4374 24.3756C23.1881 24.3756 22.9486 24.2788 22.7694 24.1055L14.9999 16.3242L7.23037 24.1055C7.05118 24.2788 6.81167 24.3756 6.5624 24.3756C6.31314 24.3756 6.07363 24.2788 5.89443 24.1055C5.71839 23.9277 5.61963 23.6877 5.61963 23.4375C5.61963 23.1874 5.71839 22.9473 5.89443 22.7696L13.6757 15L5.89443 7.23049C5.74494 7.04834 5.66854 6.81709 5.6801 6.58173C5.69166 6.34637 5.79035 6.12372 5.95697 5.9571C6.1236 5.79047 6.34625 5.69178 6.58161 5.68022C6.81697 5.66866 7.04822 5.74506 7.23037 5.89456L14.9999 13.6758L22.7694 5.89456C22.9516 5.74506 23.1828 5.66866 23.4182 5.68022C23.6536 5.69178 23.8762 5.79047 24.0428 5.9571C24.2095 6.12372 24.3081 6.34637 24.3197 6.58173C24.3313 6.81709 24.2549 7.04834 24.1054 7.23049L16.3241 15L24.1054 22.7696Z" fill="black"/>
</svg>
