<svg width="25" height="25" viewBox="0 0 25 25" fill="none" xmlns="http://www.w3.org/2000/svg">
<path d="M4.16663 6.25C4.16663 5.97373 4.27637 5.70878 4.47172 5.51343C4.66707 5.31808 4.93203 5.20833 5.20829 5.20833H19.7916C20.0679 5.20833 20.3328 5.31808 20.5282 5.51343C20.7235 5.70878 20.8333 5.97373 20.8333 6.25C20.8333 6.52627 20.7235 6.79122 20.5282 6.98657C20.3328 7.18192 20.0679 7.29167 19.7916 7.29167H5.20829C4.93203 7.29167 4.66707 7.18192 4.47172 6.98657C4.27637 6.79122 4.16663 6.52627 4.16663 6.25ZM4.16663 18.75C4.16663 18.4737 4.27637 18.2088 4.47172 18.0134C4.66707 17.8181 4.93203 17.7083 5.20829 17.7083H19.7916C20.0679 17.7083 20.3328 17.8181 20.5282 18.0134C20.7235 18.2088 20.8333 18.4737 20.8333 18.75C20.8333 19.0263 20.7235 19.2912 20.5282 19.4866C20.3328 19.6819 20.0679 19.7917 19.7916 19.7917H5.20829C4.93203 19.7917 4.66707 19.6819 4.47172 19.4866C4.27637 19.2912 4.16663 19.0263 4.16663 18.75ZM11.4583 11.4583C11.182 11.4583 10.9171 11.5681 10.7217 11.7634C10.5264 11.9588 10.4166 12.2237 10.4166 12.5C10.4166 12.7763 10.5264 13.0412 10.7217 13.2366C10.9171 13.4319 11.182 13.5417 11.4583 13.5417H19.7916C20.0679 13.5417 20.3328 13.4319 20.5282 13.2366C20.7235 13.0412 20.8333 12.7763 20.8333 12.5C20.8333 12.2237 20.7235 11.9588 20.5282 11.7634C20.3328 11.5681 20.0679 11.4583 19.7916 11.4583H11.4583Z" fill="black"/>
</svg>
