<svg width="31" height="31" viewBox="0 0 31 31" fill="none" xmlns="http://www.w3.org/2000/svg">
<path d="M15.2881 11.2412C13.1309 11.2412 11.3705 13.0193 11.3705 15.1981C11.3705 17.3769 13.1309 19.155 15.2881 19.155C17.4452 19.155 19.2056 17.3769 19.2056 15.1981C19.2056 13.0193 17.4452 11.2412 15.2881 11.2412ZM27.0377 15.1981C27.0377 13.5596 27.0524 11.9358 26.9613 10.3003C26.8702 8.40047 26.4411 6.71442 25.0657 5.3252C23.6874 3.93302 22.021 3.5026 20.1401 3.41058C18.5179 3.31856 16.9103 3.3334 15.291 3.3334C13.6687 3.3334 12.0612 3.31856 10.4419 3.41058C8.56099 3.5026 6.89171 3.93599 5.51631 5.3252C4.13798 6.71738 3.71185 8.40047 3.62074 10.3003C3.52964 11.9388 3.54433 13.5625 3.54433 15.1981C3.54433 16.8337 3.52964 18.4604 3.62074 20.096C3.71185 21.9958 4.14092 23.6818 5.51631 25.071C6.89464 26.4632 8.56099 26.8936 10.4419 26.9857C12.0641 27.0777 13.6717 27.0628 15.291 27.0628C16.9133 27.0628 18.5208 27.0777 20.1401 26.9857C22.021 26.8936 23.6903 26.4603 25.0657 25.071C26.444 23.6789 26.8702 21.9958 26.9613 20.096C27.0553 18.4604 27.0377 16.8367 27.0377 15.1981ZM15.2881 21.2863C11.9524 21.2863 9.26044 18.5673 9.26044 15.1981C9.26044 11.829 11.9524 9.10992 15.2881 9.10992C18.6237 9.10992 21.3157 11.829 21.3157 15.1981C21.3157 18.5673 18.6237 21.2863 15.2881 21.2863ZM21.5626 10.2824C20.7838 10.2824 20.1548 9.6472 20.1548 8.86057C20.1548 8.07395 20.7838 7.43871 21.5626 7.43871C22.3414 7.43871 22.9703 8.07395 22.9703 8.86057C22.9705 9.04736 22.9342 9.23236 22.8636 9.40498C22.7929 9.57759 22.6892 9.73443 22.5585 9.86651C22.4277 9.99859 22.2724 10.1033 22.1015 10.1747C21.9306 10.2461 21.7475 10.2827 21.5626 10.2824Z" fill="black"/>
</svg>
