<svg width="31" height="31" viewBox="0 0 31 31" fill="none" xmlns="http://www.w3.org/2000/svg">
<path d="M28.0615 8.78945C27.9116 8.22556 27.6177 7.71134 27.2092 7.29823C26.8008 6.88512 26.292 6.58762 25.7339 6.4355C23.6797 5.87744 15.445 5.87744 15.445 5.87744C15.445 5.87744 7.21023 5.87744 5.15596 6.43253C4.59764 6.58416 4.08864 6.88149 3.68008 7.29468C3.27152 7.70786 2.97779 8.22235 2.82838 8.78648C2.27881 10.8644 2.27881 15.1982 2.27881 15.1982C2.27881 15.1982 2.27881 19.5321 2.82838 21.607C3.13108 22.7528 4.0245 23.6552 5.15596 23.961C7.21023 24.519 15.445 24.519 15.445 24.519C15.445 24.519 23.6797 24.519 25.7339 23.961C26.8683 23.6552 27.7588 22.7528 28.0615 21.607C28.6111 19.5321 28.6111 15.1982 28.6111 15.1982C28.6111 15.1982 28.6111 10.8644 28.0615 8.78945ZM12.8294 19.1759V11.2206L19.6475 15.1686L12.8294 19.1759Z" fill="black"/>
</svg>
