<svg width="40" height="40" viewBox="0 0 40 40" fill="none" xmlns="http://www.w3.org/2000/svg">
<path d="M36.6667 15.0001H30V6.66675H13.3334V33.3334H36.6667V15.0001ZM16.6667 10.0001H26.6667V15.0001H16.6667V10.0001ZM23.3334 28.3334H16.6667V20.0001H23.3334V28.3334ZM26.6667 28.3334C25.75 28.3334 25 27.5834 25 26.6667C25 25.7501 25.75 25.0001 26.6667 25.0001C27.5834 25.0001 28.3334 25.7501 28.3334 26.6667C28.3334 27.5834 27.5834 28.3334 26.6667 28.3334ZM26.6667 23.3334C25.75 23.3334 25 22.5834 25 21.6667C25 20.7501 25.75 20.0001 26.6667 20.0001C27.5834 20.0001 28.3334 20.7501 28.3334 21.6667C28.3334 22.5834 27.5834 23.3334 26.6667 23.3334ZM31.6667 28.3334C30.75 28.3334 30 27.5834 30 26.6667C30 25.7501 30.75 25.0001 31.6667 25.0001C32.5834 25.0001 33.3334 25.7501 33.3334 26.6667C33.3334 27.5834 32.5834 28.3334 31.6667 28.3334ZM31.6667 23.3334C30.75 23.3334 30 22.5834 30 21.6667C30 20.7501 30.75 20.0001 31.6667 20.0001C32.5834 20.0001 33.3334 20.7501 33.3334 21.6667C33.3334 22.5834 32.5834 23.3334 31.6667 23.3334ZM3.33337 13.3334H11.6667V35.0001H3.33337V13.3334Z" fill="black"/>
</svg>
