<svg width="40" height="40" viewBox="0 0 40 40" fill="none" xmlns="http://www.w3.org/2000/svg">
<mask id="mask0_1_623" style="mask-type:alpha" maskUnits="userSpaceOnUse" x="5" y="5" width="31" height="30">
<path d="M14.1634 6.40503C14.4608 6.40503 14.7528 6.48463 15.0091 6.63556C15.2654 6.78649 15.4766 7.00326 15.6209 7.26336L17.6592 10.935C17.7906 11.1719 17.8624 11.4372 17.8682 11.708C17.874 11.9788 17.8137 12.2469 17.6926 12.4892L15.7292 16.4175C15.7292 16.4175 16.2984 19.3434 18.6801 21.7259C21.0626 24.1075 23.9784 24.6675 23.9784 24.6675L27.9059 22.7034C28.1483 22.5821 28.4165 22.5217 28.6875 22.5275C28.9585 22.5333 29.2239 22.6051 29.4609 22.7367L33.1442 24.785C33.4037 24.9295 33.6199 25.1408 33.7704 25.3969C33.9209 25.653 34.0001 25.9447 34.0001 26.2417V30.4692C34.0001 32.6225 32.0001 34.1775 29.9601 33.4892C25.7701 32.075 19.2659 29.3834 15.1434 25.2609C11.0217 21.1384 8.32922 14.635 6.91589 10.4442C6.22755 8.40503 7.78255 6.40503 9.93589 6.40503H14.1626H14.1634Z" fill="white" stroke="white" stroke-width="2.5" stroke-linejoin="round"/>
</mask>
<g mask="url(#mask0_1_623)">
<path d="M0 0H40V40H0V0Z" fill="black"/>
</g>
</svg>
