<svg width="40" height="40" viewBox="0 0 40 40" fill="none" xmlns="http://www.w3.org/2000/svg">
<g clip-path="url(#clip0_1_628)">
<path d="M20 2.22217C16.5391 2.22506 13.22 3.59737 10.7676 6.03938C8.31517 8.48139 6.92874 11.7947 6.91113 15.2555C6.91113 20.4444 9.82224 24.7888 11.9556 27.9555L12.3445 28.5333C14.467 31.6095 16.744 34.5763 19.1667 37.4222L20.0111 38.4111L20.8556 37.4222C23.278 34.576 25.5549 31.6093 27.6778 28.5333L28.0667 27.9444C30.1889 24.7777 33.1 20.4444 33.1 15.2555C33.0824 11.7927 31.6944 8.4778 29.2396 6.03547C26.7848 3.59314 23.4628 2.22212 20 2.22217V2.22217ZM20 21.1111C18.5584 21.1111 17.1492 20.6836 15.9505 19.8827C14.7519 19.0817 13.8176 17.9434 13.266 16.6115C12.7143 15.2796 12.5699 13.8141 12.8512 12.4002C13.1324 10.9863 13.8266 9.68751 14.846 8.66815C15.8654 7.64878 17.1641 6.95458 18.578 6.67333C19.9919 6.39209 21.4575 6.53643 22.7894 7.08811C24.1212 7.63979 25.2596 8.57403 26.0605 9.77268C26.8614 10.9713 27.2889 12.3806 27.2889 13.8222C27.2889 15.7553 26.521 17.6093 25.154 18.9762C23.7871 20.3431 21.9332 21.1111 20 21.1111V21.1111Z" fill="black"/>
<path d="M20 17.9666C22.2889 17.9666 24.1445 16.1111 24.1445 13.8222C24.1445 11.5333 22.2889 9.67773 20 9.67773C17.7111 9.67773 15.8556 11.5333 15.8556 13.8222C15.8556 16.1111 17.7111 17.9666 20 17.9666Z" fill="black"/>
</g>
<defs>
<clipPath id="clip0_1_628">
<rect width="40" height="40" fill="white"/>
</clipPath>
</defs>
</svg>
